<svg xmlns="http://www.w3.org/2000/svg" width="805" height="600"><rect width="805" height="600" x="0" y="0" fill="#f1e9e9" id="backgorund"/><g id="viz"><clipPath id="serieClipPath"><rect x="-50" y="-30" width="805" height="600"/></clipPath><g transform="translate(0,0)"><g transform="translate(50,30)" clip-path="url(#serieClipPath)"><g id="axis"><g transform="translate(0,540)" fill="none" font-size="10" font-family="sans-serif" text-anchor="middle"><path class="domain" stroke="currentColor" d="M0,6V0H725V6"/><g class="tick" opacity="1" transform="translate(0,0)"><line stroke="currentColor" y2="6"/><text fill="currentColor" y="9" dy="0.71em">Fri 25</text></g><g class="tick" opacity="1" transform="translate(51.785714285714285,0)"><line stroke="currentColor" y2="6"/><text fill="currentColor" y="9" dy="0.71em">Nov 27</text></g><g class="tick" opacity="1" transform="translate(103.57142857142857,0)"><line stroke="currentColor" y2="6"/><text fill="currentColor" y="9" dy="0.71em">Tue 29</text></g><g class="tick" opacity="1" transform="translate(155.35714285714286,0)"><line stroke="currentColor" y2="6"/><text fill="currentColor" y="9" dy="0.71em">December</text></g><g class="tick" opacity="1" transform="translate(207.14285714285714,0)"><line stroke="currentColor" y2="6"/><text fill="currentColor" y="9" dy="0.71em">Sat 03</text></g><g class="tick" opacity="1" transform="translate(258.92857142857144,0)"><line stroke="currentColor" y2="6"/><text fill="currentColor" y="9" dy="0.71em">Mon 05</text></g><g class="tick" opacity="1" transform="translate(310.7142857142857,0)"><line stroke="currentColor" y2="6"/><text fill="currentColor" y="9" dy="0.71em">Wed 07</text></g><g class="tick" opacity="1" transform="translate(362.5,0)"><line stroke="currentColor" y2="6"/><text fill="currentColor" y="9" dy="0.71em">Fri 09</text></g><g class="tick" opacity="1" transform="translate(414.2857142857143,0)"><line stroke="currentColor" y2="6"/><text fill="currentColor" y="9" dy="0.71em">Dec 11</text></g><g class="tick" opacity="1" transform="translate(466.0714285714286,0)"><line stroke="currentColor" y2="6"/><text fill="currentColor" y="9" dy="0.71em">Tue 13</text></g><g class="tick" opacity="1" transform="translate(517.8571428571429,0)"><line stroke="currentColor" y2="6"/><text fill="currentColor" y="9" dy="0.71em">Thu 15</text></g><g class="tick" opacity="1" transform="translate(569.6428571428571,0)"><line stroke="currentColor" y2="6"/><text fill="currentColor" y="9" dy="0.71em">Sat 17</text></g><g class="tick" opacity="1" transform="translate(621.4285714285714,0)"><line stroke="currentColor" y2="6"/><text fill="currentColor" y="9" dy="0.71em">Mon 19</text></g><g class="tick" opacity="1" transform="translate(673.2142857142858,0)"><line stroke="currentColor" y2="6"/><text fill="currentColor" y="9" dy="0.71em">Wed 21</text></g><g class="tick" opacity="1" transform="translate(725,0)"><line stroke="currentColor" y2="6"/><text fill="currentColor" y="9" dy="0.71em">Fri 23</text></g><text x="725" dy="-5" text-anchor="end" style="font-family: Arial, sans-serif; font-size: 12px; fill: rgb(123, 123, 123); font-weight: bold;">日期</text></g><g transform="translate(0,0)" fill="none" font-size="10" font-family="sans-serif" text-anchor="end"><path class="domain" stroke="currentColor" d="M0,540V0"/><g class="tick" opacity="1" transform="translate(0,540)"><line stroke="currentColor" x2="-6"/><text fill="currentColor" x="-9" dy="0.32em">455</text></g><g class="tick" opacity="1" transform="translate(0,480)"><line stroke="currentColor" x2="-6"/><text fill="currentColor" x="-9" dy="0.32em">460</text></g><g class="tick" opacity="1" transform="translate(0,420)"><line stroke="currentColor" x2="-6"/><text fill="currentColor" x="-9" dy="0.32em">465</text></g><g class="tick" opacity="1" transform="translate(0,360.00000000000006)"><line stroke="currentColor" x2="-6"/><text fill="currentColor" x="-9" dy="0.32em">470</text></g><g class="tick" opacity="1" transform="translate(0,300)"><line stroke="currentColor" x2="-6"/><text fill="currentColor" x="-9" dy="0.32em">475</text></g><g class="tick" opacity="1" transform="translate(0,240)"><line stroke="currentColor" x2="-6"/><text fill="currentColor" x="-9" dy="0.32em">480</text></g><g class="tick" opacity="1" transform="translate(0,180.00000000000003)"><line stroke="currentColor" x2="-6"/><text fill="currentColor" x="-9" dy="0.32em">485</text></g><g class="tick" opacity="1" transform="translate(0,120)"><line stroke="currentColor" x2="-6"/><text fill="currentColor" x="-9" dy="0.32em">490</text></g><g class="tick" opacity="1" transform="translate(0,60.00000000000003)"><line stroke="currentColor" x2="-6"/><text fill="currentColor" x="-9" dy="0.32em">495</text></g><g class="tick" opacity="1" transform="translate(0,0)"><line stroke="currentColor" x2="-6"/><text fill="currentColor" x="-9" dy="0.32em">500</text></g><text x="4" text-anchor="start" dominant-baseline="hanging" style="font-family: Arial, sans-serif; font-size: 12px; fill: rgb(123, 123, 123); font-weight: bold;">收盤</text></g></g><g id="viz"><g><path d="M0,23.999999999999975C38.839285714285715,23.999999999999975,38.839285714285715,234,77.67857142857143,234C90.625,234,90.625,155.99999999999997,103.57142857142857,155.99999999999997C116.51785714285714,155.99999999999997,116.51785714285714,120,129.46428571428572,120C142.41071428571428,120,142.41071428571428,17.999999999999996,155.35714285714286,17.999999999999996C168.30357142857144,17.999999999999996,168.30357142857144,89.99999999999999,181.25,89.99999999999999C220.08928571428572,89.99999999999999,220.08928571428572,132,258.92857142857144,132C271.875,132,271.875,264,284.82142857142856,264C297.7678571428571,264,297.7678571428571,300,310.7142857142857,300C323.66071428571433,300,323.66071428571433,342,336.6071428571429,342C349.55357142857144,342,349.55357142857144,222,362.5,222C401.33928571428567,222,401.33928571428567,300,440.1785714285714,300C453.125,300,453.125,342,466.0714285714286,342C479.01785714285717,342,479.01785714285717,234,491.9642857142857,234C504.91071428571433,234,504.91071428571433,234,517.8571428571429,234C530.8035714285714,234,530.8035714285714,347.99999999999994,543.75,347.99999999999994C582.5892857142858,347.99999999999994,582.5892857142858,402,621.4285714285714,402C634.375,402,634.375,510,647.3214285714286,510C660.2678571428571,510,660.2678571428571,492,673.2142857142858,492C686.1607142857143,492,686.1607142857143,384,699.1071428571429,384C712.0535714285714,384,712.0535714285714,540,725,540" stroke="#1f77b4" fill="none"/><text font-family="sans-serif" font-size="10" class="labels" x="155.35714285714286" y="17.999999999999996" dx="0" dy="-4" text-anchor="middle"/></g></g></g><text y="4" x="4" style="font-family: Arial, sans-serif; font-size: 12px; fill: black; font-weight: bold; dominant-baseline: hanging;"/></g><g id="grid"><rect x="0" y="0" width="805" height="600" fill="none" stroke="#ccc"/></g></g></svg>